<?xml version="1.0" encoding="utf-8"?>
<svg version="1.1" xmlns:xlink="http://www.w3.org/1999/xlink" width="20px" height="20px" xmlns="http://www.w3.org/2000/svg">
  <g transform="matrix(1 0 0 1 -1271 -15 )">
    <path d="M 20 10  C 20 4.48  15.52 0  10 0  C 4.48 0  0 4.48  0 10  C 0 15.52  4.48 20  10 20  C 15.52 20  20 15.52  20 10  Z M 7 6  C 7 4.34  8.34 3  10 3  C 11.66 3  13 4.34  13 6  C 13 7.66  11.66 9  10 9  C 8.34 9  7 7.66  7 6  Z M 16 13.98  C 14.71 15.92  12.5 17.2  10 17.2  C 7.5 17.2  5.29 15.92  4 13.98  C 4.03 11.99  8 10.9  10 10.9  C 11.99 10.9  15.97 11.99  16 13.98  Z " fill-rule="nonzero" fill="#ffffff" stroke="none" transform="matrix(1 0 0 1 1271 15 )" />
  </g>
</svg>